<?xml version="1.0" standalone="no"?>
<!DOCTYPE svg PUBLIC "-//W3C//DTD SVG 20010904//EN"
 "http://www.w3.org/TR/2001/REC-SVG-20010904/DTD/svg10.dtd">
<svg version="1.0" xmlns="http://www.w3.org/2000/svg"
 width="3287.000000pt" height="1801.000000pt" viewBox="0 0 3287.000000 1801.000000"
 preserveAspectRatio="xMidYMid meet">

<g transform="translate(0.000000,1801.000000) scale(0.100000,-0.100000)"
fill="#000000" stroke="none">
<path d="M10243 10959 c-26 -28 -52 -57 -56 -65 -6 -10 -29 -14 -88 -14 l-80
0 -20 -47 c-12 -27 -36 -81 -54 -120 -32 -69 -36 -73 -67 -73 -18 0 -242 -25
-498 -55 -256 -30 -584 -68 -730 -85 -146 -17 -816 -93 -1490 -170 -674 -77
-1238 -142 -1255 -145 -28 -4 -32 -1 -63 55 l-33 60 -59 0 c-51 0 -64 4 -92
29 -28 24 -45 29 -109 34 -68 6 -84 3 -166 -26 l-91 -32 -91 -119 -91 -119 0
-201 0 -200 -357 -631 c-196 -346 -599 -1060 -896 -1585 -297 -525 -731 -1292
-963 -1704 -233 -412 -424 -752 -424 -756 0 -7 718 -25 725 -18 3 3 220 394
1623 2929 l607 1096 3 -1989 2 -1989 138 3 137 3 3 2199 2 2198 47 64 c26 35
50 61 54 57 4 -5 353 -577 775 -1273 422 -696 874 -1442 1005 -1658 132 -217
239 -398 239 -404 0 -8 -811 -1453 -856 -1525 l-14 -23 423 0 424 0 212 427
c207 416 213 427 227 403 8 -14 72 -124 142 -245 l127 -220 233 -3 232 -2 0
1040 0 1041 211 427 c116 235 245 498 287 586 69 144 78 157 90 140 8 -11 153
-255 323 -543 l309 -525 0 -1198 0 -1198 160 0 160 0 2 940 3 941 484 -778
c266 -428 491 -786 499 -796 14 -16 35 -17 216 -15 l201 3 5 1216 5 1216 739
-1303 740 -1304 263 0 263 0 0 366 0 366 187 -231 187 -231 128 0 128 0 2
1681 3 1682 246 -419 c136 -230 592 -1006 1013 -1722 l766 -1304 0 -94 0 -94
225 0 225 0 0 160 0 159 370 653 c203 359 611 1081 907 1604 l538 950 3 -1598
2 -1598 123 0 122 1 100 165 100 165 3 -270 2 -271 205 0 205 0 0 563 0 562
633 1107 632 1107 3 -1540 2 -1539 134 0 134 0 234 459 233 460 5 -557 5 -557
163 -3 162 -2 0 861 0 862 118 211 c66 116 260 465 433 775 l314 565 3 -1477
2 -1477 110 0 110 0 2 1111 3 1111 230 -908 c126 -500 266 -1051 310 -1224
l80 -315 115 -93 115 -93 104 3 104 3 604 1305 c332 718 724 1565 871 1882
l267 578 3 -1875 2 -1875 115 0 c106 0 115 2 126 21 10 19 280 624 1287 2882
l307 688 5 -1768 5 -1768 125 0 125 0 5 1391 5 1390 471 -1470 472 -1471 287
-3 287 -2 -6 22 c-3 13 -221 712 -484 1553 -264 842 -545 1741 -626 1998
l-146 468 0 172 0 172 -108 108 c-101 101 -111 108 -173 125 l-67 19 -48 -43
c-49 -42 -50 -43 -146 -50 l-98 -7 0 -58 c0 -53 -2 -59 -21 -59 -11 0 -3201
256 -7087 569 -3887 314 -7107 572 -7157 576 -49 3 -162 12 -250 20 -220 21
-2388 195 -2418 195 -13 0 -42 16 -65 36 -42 35 -42 36 -42 105 l0 69 -41 0
c-34 0 -52 9 -112 55 -69 54 -71 55 -138 55 l-68 0 -48 -51z m1400 -691 c548
-44 896 -76 875 -80 -18 -4 -422 -30 -896 -59 -852 -52 -864 -53 -875 -34 -7
11 -36 64 -65 117 l-53 97 48 15 c26 8 50 15 53 16 3 0 414 -32 913 -72z
m-1844 -150 c-39 -68 -72 -124 -74 -126 -7 -8 -695 -132 -730 -132 -22 1 -112
11 -200 25 -88 13 -314 45 -502 71 -188 27 -340 50 -337 53 2 2 142 21 312 42
555 67 662 80 1102 134 239 29 449 53 467 54 l32 1 -70 -122z m3811 -142 l0
-123 -92 -11 c-260 -31 -402 -48 -965 -113 l-612 -71 -458 52 c-436 49 -459
52 -482 75 -14 14 -23 26 -20 28 3 4 1123 126 2304 253 66 7 158 17 205 22 47
5 93 10 103 11 15 1 17 -11 17 -123z m1010 94 c333 -16 607 -30 610 -31 5 -1
-1087 -178 -1102 -179 -5 0 -113 173 -145 233 -5 9 -58 11 637 -23z m2883
-241 c224 -13 407 -26 407 -29 0 -3 -177 -25 -392 -49 -216 -24 -410 -46 -430
-49 l-38 -5 0 82 c0 79 1 81 23 77 12 -3 205 -15 430 -27z m-903 -59 c0 -33
-1 -60 -2 -60 -2 -1 -513 -40 -1136 -88 l-1132 -88 -26 39 c-14 21 -24 40 -22
42 5 5 2203 211 2281 214 l37 1 0 -60z m-5920 15 l23 -25 -76 0 c-75 0 -77 1
-77 25 0 24 3 25 53 25 44 0 58 -4 77 -25z m-3310 -121 c712 -25 1305 -48
1318 -50 l22 -4 0 -856 0 -855 -174 -347 c-377 -750 -553 -1094 -561 -1095 -5
-1 -29 32 -54 73 -24 41 -461 761 -969 1599 -508 838 -933 1538 -943 1556
l-20 33 43 -4 c24 -2 626 -24 1338 -50z m12010 -57 l0 -44 -132 -12 c-73 -6
-592 -56 -1154 -111 -561 -55 -1026 -100 -1032 -100 -17 0 -16 150 1 151 6 0
437 35 957 78 749 62 988 79 1153 80 l207 1 0 -43z m-9914 -149 c-68 -147
-140 -288 -146 -288 -5 0 -141 197 -243 352 l-19 28 226 0 225 0 -43 -92z
m4144 82 c0 -6 -53 -9 -142 -8 -141 2 -141 2 -48 8 160 10 190 10 190 0z
m-3320 -1001 l0 -952 -302 493 -301 493 177 356 c98 196 202 402 232 459 l55
102 70 0 69 0 0 -951z m919 238 l444 -712 24 -1360 c12 -748 22 -1367 20
-1376 -1 -8 -260 388 -574 880 l-573 896 0 1193 0 1192 108 0 107 0 444 -713z
m10601 650 l0 -62 -812 -73 c-719 -64 -839 -73 -1035 -72 l-223 0 0 50 c0 28
1 50 3 51 23 8 1875 167 1955 168 l112 1 0 -63z m627 42 c139 -7 251 -14 249
-16 -2 -2 -118 -26 -257 -53 -140 -28 -264 -52 -276 -55 -22 -5 -23 -3 -23 71
l0 76 28 -6 c15 -3 141 -11 279 -17z m-10737 -461 c0 -232 -2 -419 -4 -417
-12 14 -526 828 -526 833 0 3 119 6 265 6 l265 0 0 -422z m4930 385 l0 -26
-157 6 c-87 4 -185 10 -218 14 -55 7 -47 9 95 19 85 6 183 12 218 12 61 2 62
2 62 -25z m-4005 -38 c629 -19 976 -32 981 -38 2 -2 3 -614 2 -1359 l-3 -1356
-121 217 c-67 119 -412 734 -768 1368 -355 633 -649 1158 -652 1167 -8 20 -54
20 561 1z m11283 -32 l83 -6 -3 -51 -3 -51 -835 -67 c-459 -37 -861 -67 -893
-67 -32 -1 -74 6 -93 14 -31 13 -35 18 -32 47 l3 33 755 76 c757 77 864 84
1018 72z m-4558 -53 l0 -50 -42 0 c-80 -1 -408 24 -408 30 0 3 98 20 218 37
119 17 220 31 225 32 4 0 7 -21 7 -49z m5632 -37 c350 -26 635 -49 633 -51 -4
-4 -1252 -102 -1302 -102 l-33 0 0 106 0 106 33 -5 c17 -3 319 -27 669 -54z
m-10729 -123 l87 -140 -2 -1711 -3 -1710 -187 316 -188 316 0 1535 0 1534 103
0 102 0 88 -140z m1390 83 l957 -48 0 -1799 c0 -1513 -2 -1797 -13 -1781 -8
11 -268 457 -579 990 -311 534 -757 1299 -992 1702 l-426 732 0 131 0 132 48
-6 c26 -3 478 -27 1005 -53z m6167 -27 l0 -54 -87 -12 c-49 -6 -110 -15 -138
-19 -41 -6 -404 10 -480 21 -15 2 628 111 693 117 8 1 12 -16 12 -53z m-12682
-104 l79 -117 -83 -165 -83 -165 0 283 c-1 155 1 282 4 282 2 0 40 -53 83
-118z m17778 73 c282 -19 525 -35 541 -35 22 0 54 -21 132 -87 66 -57 101 -93
98 -103 -3 -8 -175 -404 -384 -880 -208 -476 -527 -1204 -709 -1617 l-329
-753 -3 163 c-2 89 4 788 13 1552 8 765 15 1484 15 1598 l0 208 58 -6 c31 -3
287 -21 568 -40z m-8741 -76 c435 -12 791 -23 793 -25 2 -1 -372 -641 -830
-1421 -459 -780 -895 -1520 -968 -1646 -73 -125 -135 -225 -137 -223 -6 6 17
3142 23 3255 l6 94 162 -6 c88 -3 517 -16 951 -28z m-5365 -1473 l810 -1418
-2 -488 -3 -488 -812 1394 -813 1393 0 517 c0 285 2 515 5 512 3 -3 370 -643
815 -1422z m6580 -8 l0 -1433 -115 -164 c-64 -91 -118 -167 -120 -170 -3 -2
-5 716 -5 1597 l0 1602 120 0 120 0 0 -1432z m1634 1291 c3 -3 -281 -511 -630
-1129 -350 -619 -645 -1142 -656 -1163 -10 -22 -22 -37 -24 -34 -6 6 25 2241
32 2342 l5 70 634 -41 c349 -22 637 -42 639 -45z m4180 -1256 c-366 -736 -734
-1477 -817 -1648 -147 -299 -152 -308 -155 -265 -3 54 56 3171 60 3175 5 4
1373 72 1480 74 l97 1 -665 -1337z m-1231 1260 c4 -8 -50 -2255 -55 -2303 -2
-14 -51 157 -111 380 -59 223 -186 702 -282 1065 -97 363 -178 667 -180 676
-3 9 22 51 60 102 l66 87 249 0 c137 0 251 -3 253 -7z m-2405 -25 l252 -21 0
-41 c0 -23 -7 -503 -15 -1068 l-14 -1027 -268 -465 c-147 -256 -268 -464 -268
-463 -1 1 7 607 16 1347 10 740 18 1438 18 1553 1 158 4 207 14 207 6 0 126
-10 265 -22z m984 -62 c253 -12 257 -13 277 -37 51 -62 75 -9 -334 -730 -207
-365 -379 -667 -383 -671 -5 -5 21 1449 27 1459 0 1 36 0 79 -3 42 -3 193 -11
334 -18z m-13832 -2932 l0 -675 -21 3 c-17 2 -56 70 -190 328 -93 179 -169
329 -169 334 0 10 371 686 377 686 2 0 3 -304 3 -676z"/>
<path d="M22725 4333 c-77 -28 -138 -67 -203 -132 -120 -120 -100 -70 -513
-1309 -208 -625 -379 -1140 -379 -1144 0 -5 222 -8 493 -8 l493 0 189 665
c105 366 193 664 197 662 10 -3 590 -854 667 -977 75 -122 205 -259 291 -307
97 -55 167 -73 284 -73 75 0 122 5 167 20 152 47 301 175 402 345 54 90 670
994 678 995 4 0 91 -299 195 -665 l189 -665 497 0 496 0 -378 1136 c-259 775
-390 1155 -412 1192 -18 30 -65 88 -103 127 -125 128 -267 177 -419 145 -117
-24 -280 -130 -383 -249 -21 -24 -236 -336 -478 -695 -243 -358 -445 -650
-450 -649 -6 1 -206 294 -446 650 -384 570 -448 659 -526 738 -93 94 -159 140
-265 183 -84 34 -210 41 -283 15z"/>
<path d="M11342 4306 c-72 -18 -183 -75 -263 -135 -88 -67 -240 -227 -314
-332 -33 -46 -417 -532 -854 -1079 -436 -547 -798 -1001 -804 -1007 -7 -10
101 -13 535 -13 l545 0 644 790 c354 434 646 789 649 789 6 0 743 -917 748
-930 2 -5 -239 -9 -595 -9 l-598 -1 -271 -317 -271 -317 1670 -3 c919 -1 1672
0 1675 2 2 3 -364 476 -814 1053 -450 576 -845 1084 -878 1127 -192 256 -433
398 -670 395 -45 0 -105 -6 -134 -13z"/>
<path d="M14380 4307 c-84 -24 -168 -89 -244 -190 l-36 -49 0 -1164 0 -1164
435 0 435 0 2 704 3 704 850 -634 c921 -687 902 -675 1120 -740 70 -20 113
-27 195 -28 96 -1 110 1 162 27 65 32 127 88 169 154 l29 47 0 1163 0 1163
-440 0 -440 0 -2 -705 -3 -705 -888 669 c-658 497 -902 675 -943 690 -152 58
-321 82 -404 58z"/>
<path d="M19225 4304 c-231 -30 -466 -89 -659 -165 -207 -82 -353 -175 -487
-308 -108 -109 -174 -210 -214 -331 -71 -213 -73 -535 -5 -780 26 -93 113
-275 171 -357 217 -306 573 -517 1015 -603 102 -19 140 -20 1230 -20 l1124 0
0 770 0 770 -1271 0 c-737 0 -1269 -4 -1267 -9 2 -5 124 -147 272 -315 l270
-306 573 0 574 0 -3 -132 -3 -133 -564 -3 -564 -2 -114 30 c-305 79 -543 234
-627 406 -134 273 2 556 350 728 49 24 133 58 187 75 l97 31 819 0 818 0 284
326 c156 179 286 330 287 335 2 5 -427 9 -1090 8 -874 -1 -1115 -4 -1203 -15z"/>
<path d="M29215 4305 c-199 -54 -426 -241 -595 -490 -19 -27 -394 -500 -834
-1050 -439 -550 -803 -1006 -809 -1012 -7 -10 101 -13 536 -13 l545 0 644 789
c354 434 646 789 650 788 9 -3 748 -920 748 -929 0 -5 -269 -8 -597 -9 l-598
0 -273 -320 -272 -319 1681 0 1681 0 -34 43 c-19 23 -403 515 -853 1092 -450
578 -843 1080 -873 1117 -121 150 -294 266 -460 309 -88 22 -213 24 -287 4z"/>
<path d="M31990 3015 l0 -1305 440 0 440 0 0 1305 0 1305 -440 0 -440 0 0
-1305z"/>
<path d="M1180 4284 c-113 -24 -225 -64 -347 -123 -326 -159 -551 -370 -693
-651 -90 -179 -128 -330 -137 -545 -9 -210 28 -364 129 -532 41 -70 180 -218
262 -279 244 -184 596 -319 1014 -390 l144 -24 821 0 822 0 252 318 252 317
-1132 5 -1132 6 -85 22 c-245 65 -397 198 -456 397 -22 74 -25 236 -5 315 49
199 186 354 406 460 195 95 135 90 1071 90 l821 0 189 232 c103 127 219 269
257 315 l68 83 -1228 -1 c-1015 0 -1239 -3 -1293 -15z"/>
<path d="M4070 3020 l0 -1280 455 0 455 0 0 480 0 480 838 -2 837 -3 3 -477 2
-478 450 0 450 0 0 1280 0 1280 -445 0 -445 0 0 -470 0 -470 -860 0 -860 0 0
470 0 470 -440 0 -440 0 0 -1280z"/>
<path d="M8010 3020 l0 -1280 455 0 455 0 0 1280 0 1280 -455 0 -455 0 0
-1280z"/>
</g>
</svg>
